<svg width="22" height="21" viewBox="0 0 22 21" fill="none" xmlns="http://www.w3.org/2000/svg">
<path d="M19.4732 5.63555C19.3458 5.51303 19.1942 5.41586 19.0271 5.34968C18.86 5.2835 18.6809 5.24962 18.5 5.25H15.75V4.59375C15.75 3.37541 15.243 2.20697 14.3405 1.34548C13.4379 0.483983 12.2139 0 10.9375 0C9.66115 0 8.43707 0.483983 7.53455 1.34548C6.63203 2.20697 6.125 3.37541 6.125 4.59375V5.25H3.375C3.01033 5.25 2.66059 5.38828 2.40273 5.63442C2.14487 5.88056 2 6.2144 2 6.5625V15.4219C2 17.0215 3.41797 18.375 5.09375 18.375H16.7812C17.5918 18.3752 18.3704 18.0727 18.9503 17.5321C19.2422 17.2664 19.4746 16.9469 19.6335 16.593C19.7924 16.2391 19.8746 15.8582 19.875 15.4731V6.5625C19.8756 6.39031 19.8403 6.21973 19.7714 6.06062C19.7024 5.9015 19.6011 5.75703 19.4732 5.63555ZM7.5 4.59375C7.5 3.72351 7.86216 2.88891 8.50682 2.27356C9.15148 1.6582 10.0258 1.3125 10.9375 1.3125C11.8492 1.3125 12.7235 1.6582 13.3682 2.27356C14.0128 2.88891 14.375 3.72351 14.375 4.59375V5.25H7.5V4.59375ZM15.75 8.53125C15.75 9.74959 15.243 10.918 14.3405 11.7795C13.4379 12.641 12.2139 13.125 10.9375 13.125C9.66115 13.125 8.43707 12.641 7.53455 11.7795C6.63203 10.918 6.125 9.74959 6.125 8.53125V7.875C6.125 7.70095 6.19743 7.53403 6.32636 7.41096C6.4553 7.28789 6.63016 7.21875 6.8125 7.21875C6.99484 7.21875 7.1697 7.28789 7.29864 7.41096C7.42757 7.53403 7.5 7.70095 7.5 7.875V8.53125C7.5 9.40149 7.86216 10.2361 8.50682 10.8514C9.15148 11.4668 10.0258 11.8125 10.9375 11.8125C11.8492 11.8125 12.7235 11.4668 13.3682 10.8514C14.0128 10.2361 14.375 9.40149 14.375 8.53125V7.875C14.375 7.70095 14.4474 7.53403 14.5764 7.41096C14.7053 7.28789 14.8802 7.21875 15.0625 7.21875C15.2448 7.21875 15.4197 7.28789 15.5486 7.41096C15.6776 7.53403 15.75 7.70095 15.75 7.875V8.53125Z" fill="white"/>
</svg>