<svg width="68" height="31" viewBox="0 0 68 31" fill="none" xmlns="http://www.w3.org/2000/svg">
<path d="M12.429 10.2411C11.9182 10.5424 11.5778 10.8438 10.8967 11.1451C9.19412 11.8985 7.49147 12.3506 5.95912 13.2546C2.89443 15.0628 2.89439 17.323 6.12934 18.8298C9.36429 20.3366 12.7695 21.3913 16.345 21.994C20.7718 22.7474 25.1986 23.0488 29.7956 23.5008C31.6685 23.6515 33.5414 23.5008 35.5845 23.5008C35.5845 22.2954 35.7547 21.09 35.7547 19.5832C37.7979 21.6927 39.5005 23.5008 41.3733 25.309C39.841 26.6651 37.9681 28.3225 35.7547 30.4321C35.7547 28.9253 35.5845 27.8705 35.5845 26.8158C30.647 26.5144 25.7093 26.213 20.942 25.761C15.3234 25.1583 9.8751 24.2542 4.76728 21.8434C2.55389 20.7886 0 19.5832 0 17.0216C0 14.3094 2.55389 13.104 4.76728 12.0492C6.98067 10.9945 9.36438 10.3917 11.748 9.48767C12.0885 9.78903 12.2587 10.0904 12.429 10.2411Z" fill="#FEC536"/>
<path d="M44.6078 26.0622C44.2673 23.0487 44.2672 23.1993 46.9914 22.7473C51.4182 21.8432 55.845 20.7885 60.1015 19.583C61.9743 19.131 63.8472 17.9256 63.8472 15.9667C63.8472 14.0079 61.8041 13.2545 60.2718 12.5011C59.08 11.8984 57.8881 11.597 56.6963 11.145C56.1855 10.9943 55.845 10.5423 55.6747 9.93958C59.761 10.693 63.5067 11.597 66.5714 14.3093C68.4442 15.9667 68.4442 17.9256 66.5714 19.583C65.5498 20.4871 64.358 21.2405 62.9959 21.8432C57.3773 24.4048 51.0777 25.3088 44.6078 26.0622Z" fill="#FEC536"/>
<path d="M56.1858 0.748169C54.4832 0.748169 53.1211 1.9536 53.1211 3.46039C53.1211 4.96718 54.4832 6.17261 56.1858 6.17261C57.8884 6.17261 59.2504 4.96718 59.2504 3.46039C59.2504 1.9536 57.8884 0.748169 56.1858 0.748169ZM56.1858 4.51514C55.5047 4.51514 54.8237 4.06311 54.8237 3.30971C54.8237 2.707 55.3345 2.10428 56.1858 2.10428C56.8668 2.10428 57.5478 2.55632 57.5478 3.30971C57.5478 4.06311 56.8668 4.51514 56.1858 4.51514Z" fill="#FEC536"/>
<path d="M25.7091 12.1996C25.7091 14.7612 23.4958 16.72 20.4311 16.72C17.5366 16.72 15.3232 14.9119 15.3232 12.3503H17.8772C18.0474 13.7064 19.0689 14.6105 20.6013 14.6105C22.1336 14.6105 23.3255 13.5558 23.3255 12.049C23.3255 10.5422 22.1337 9.6381 20.2608 9.6381H18.3879V9.18606L21.6229 4.81637H15.834V2.85754H25.3687V3.30958L21.9634 7.98063C24.0066 8.43267 25.7091 10.0901 25.7091 12.1996Z" fill="#FEC536"/>
<path d="M39.16 12.049C39.16 14.7612 36.7764 16.8707 33.5414 16.8707C30.1362 16.8707 27.9229 14.9119 27.9229 12.049C27.9229 10.8436 28.4336 9.33679 29.6255 7.52864L32.6901 2.70691H35.4143C33.5414 5.56981 32.8604 6.77524 32.1794 7.83C32.8604 7.67932 33.3712 7.52864 34.0522 7.52864C36.7764 7.52864 39.16 9.33679 39.16 12.049ZM36.6061 12.049C36.6061 10.3915 35.244 9.33679 33.5414 9.33679C31.6686 9.33679 30.4768 10.3915 30.4768 12.049C30.4768 13.5558 31.8388 14.7612 33.5414 14.7612C35.244 14.7612 36.6061 13.5558 36.6061 12.049Z" fill="#FEC536"/>
<path d="M40.8623 9.63819C40.8623 5.2685 43.2459 2.55627 46.9916 2.55627C50.7374 2.55627 53.1211 5.2685 53.1211 9.63819C53.1211 14.0079 50.7374 16.7201 46.9916 16.7201C43.2459 16.7201 40.8623 14.0079 40.8623 9.63819ZM50.5672 9.63819C50.5672 6.47393 49.205 4.66578 46.9916 4.66578C44.7783 4.66578 43.4162 6.47393 43.4162 9.63819C43.4162 12.8024 44.7783 14.6106 46.9916 14.6106C49.205 14.7613 50.5672 12.8024 50.5672 9.63819Z" fill="#FEC536"/>
</svg>
