<svg width="69" height="61" viewBox="0 0 69 61" fill="none" xmlns="http://www.w3.org/2000/svg">
<path d="M66.0549 1.71658C65.0334 1.71658 63.8415 1.71658 62.82 1.71658C55.8393 2.01794 49.1991 3.37405 42.8995 6.08627C35.2377 9.25053 28.7678 13.7709 23.66 19.7981C20.0846 23.8664 17.5306 28.3868 15.6578 33.2085C15.4875 33.5099 15.6578 33.6605 15.828 33.8112C17.3604 35.1673 18.8927 36.5234 20.4251 37.8795C20.5953 38.0302 20.7656 38.3316 20.7656 38.6329C20.7656 38.9343 20.5953 39.2357 20.2548 39.3863C19.9143 39.537 19.4035 39.537 19.2332 39.2357C18.3819 38.4823 17.7009 37.8795 16.8496 37.1262C15.828 36.2221 14.9767 35.318 13.9552 34.5646C13.6146 34.2633 13.4444 33.8112 13.6146 33.3592C15.828 27.4827 19.063 22.0583 23.66 17.2365C28.2571 12.2641 33.8757 8.34646 40.1753 5.48356C45.9642 2.77133 52.2638 1.11387 58.7337 0.36047C61.4579 0.0591121 64.1821 -0.0915669 66.9062 0.0591121C67.7575 0.0591121 67.9278 0.36047 68.0981 1.11387C68.4386 10.908 65.7144 19.9487 59.7553 28.3868C53.7962 36.6741 45.6236 42.852 35.408 46.7696C33.8757 47.3723 32.1731 47.8244 30.4704 48.4271C29.9597 48.5778 29.6191 48.5778 29.2786 48.1257C27.576 46.6189 25.7032 44.9615 24.0005 43.4547C23.66 43.1533 23.4898 42.7013 23.8303 42.2492C24.1708 41.7972 24.8518 41.7972 25.3626 42.2492C26.895 43.6054 28.4273 44.9615 29.9597 46.3176C30.3002 46.6189 30.4705 46.6189 30.811 46.4683C38.3024 44.2081 44.9426 40.5918 50.5612 35.77C57.2014 30.0442 61.6281 23.2637 64.1821 15.5791C65.5441 11.36 66.2252 6.99035 66.2252 2.46998C66.2252 2.16862 66.0549 2.01794 66.0549 1.71658Z" fill="#FEC536"/>
<path d="M56.6907 19.346C56.6907 24.469 52.0937 28.5374 46.3048 28.5374C40.516 28.5374 35.9189 24.469 35.9189 19.346C35.9189 14.3736 40.516 10.1545 46.1346 10.1545C52.0937 10.1545 56.6907 14.2229 56.6907 19.346ZM54.6476 19.4966C54.6476 15.2776 50.9019 11.9627 46.1346 11.9627C41.3673 11.9627 37.6216 15.2776 37.6216 19.4966C37.6216 23.7157 41.3673 27.0306 46.1346 27.0306C50.9019 26.8799 54.6476 23.565 54.6476 19.4966Z" fill="#FEC536"/>
<path d="M30.6409 57.9198C31.8327 57.3171 33.0246 56.5637 34.0461 55.8103C37.4513 53.0981 39.3242 49.7832 40.1755 45.8655C40.3458 45.2628 40.6863 44.9614 41.1971 44.9614C41.8781 44.9614 42.2186 45.4135 42.2186 46.0162C42.0484 46.7696 41.8781 47.6736 41.5376 48.427C39.6647 53.5501 36.2595 57.3171 30.9814 59.8786C29.7896 60.4814 29.2788 60.18 29.1086 59.1253C28.4275 55.961 27.7465 52.6461 27.0654 49.4818C27.0654 49.1804 27.0654 48.8791 27.0654 48.7284C27.2357 48.427 27.5762 48.2764 28.087 48.2764C28.4275 48.2764 28.768 48.5777 28.9383 48.8791C29.1086 49.7832 29.2788 50.6872 29.6193 51.742C29.7896 53.8515 30.3004 55.8103 30.6409 57.9198Z" fill="#FEC536"/>
<path d="M2.54808 33.0576C3.56964 33.2083 4.59121 33.359 5.44251 33.5097C7.82616 33.9617 10.2098 34.2631 12.4232 34.7151C12.5935 34.7151 12.5935 34.7151 12.7637 34.7151C13.2745 34.8658 13.615 35.3178 13.4448 35.7699C13.2745 36.2219 12.934 36.5232 12.2529 36.3726C10.8909 36.0712 9.3585 35.9205 7.99642 35.6192C5.78303 35.1671 3.56964 34.8658 1.18599 34.4137C1.01573 34.4137 1.01573 34.4137 0.845471 34.4137C-0.00583219 34.2631 -0.176093 33.811 0.164428 33.0576C1.18599 31.4002 2.37782 29.7427 3.91016 28.3866C7.14512 25.373 11.0611 23.7155 15.4879 22.8115C15.6582 22.8115 15.8284 22.8115 15.8284 22.6608C16.3392 22.5101 16.85 22.8115 17.0202 23.2635C17.1905 23.7155 16.85 24.1676 16.1689 24.3182C15.1474 24.6196 13.9555 24.7703 12.934 25.0716C8.5072 26.4278 5.10199 28.8386 2.54808 32.3042C2.71834 32.7563 2.71834 32.907 2.54808 33.0576Z" fill="#FEC536"/>
<path d="M14.6367 46.4683C14.807 46.3176 14.9772 46.0162 15.1475 45.8655C18.3825 43.0026 21.4471 40.2904 24.6821 37.4275C25.8739 36.3728 26.8955 35.4687 28.0873 34.4139C28.5981 33.9619 29.1089 33.9619 29.6197 34.2633C29.9602 34.5646 29.9602 35.1673 29.4494 35.6194C25.7037 38.9343 21.9579 42.3999 18.0419 45.7149C17.5311 46.1669 17.0204 46.7696 16.3393 47.2216C15.9988 47.523 15.6583 47.523 15.3178 47.3723C14.807 47.2216 14.6367 46.9203 14.6367 46.4683Z" fill="#FEC536"/>
<path d="M10.2098 50.3857C10.5503 50.5364 10.8908 50.6871 11.0611 50.9885C11.2314 51.2898 11.0611 51.5912 10.8908 51.8925C10.7206 52.0432 10.3801 52.3446 10.2098 52.6459C8.16666 54.4541 6.12353 56.4129 3.91015 58.2211C3.56962 58.3717 3.39936 58.5224 3.05884 58.5224C2.71832 58.5224 2.3778 58.3717 2.20754 58.0704C2.03728 57.6183 2.03728 57.317 2.3778 57.0156C3.73989 55.8102 5.10197 54.6048 6.46406 53.3993C7.48562 52.4952 8.33692 51.7419 9.35849 50.8378C9.69901 50.6871 9.86927 50.5364 10.2098 50.3857Z" fill="#FEC536"/>
<path d="M8.67752 44.208C9.52883 44.208 10.0396 44.9614 9.69909 45.4134C9.52883 45.5641 9.52883 45.7148 9.35857 45.8655C7.14518 47.8243 4.93179 49.7831 2.7184 51.742L2.54814 51.8926C2.03736 52.194 1.52658 52.3447 1.18606 51.8926C0.845534 51.5913 0.845534 50.9886 1.18606 50.6872C2.88866 49.1804 4.59127 47.6736 6.29387 46.1668C6.97492 45.5641 7.4857 45.1121 8.16674 44.66C8.337 44.3587 8.67752 44.208 8.67752 44.208Z" fill="#FEC536"/>
<path d="M18.212 52.6461C18.212 52.7967 18.0417 52.9474 17.8714 53.2488C15.4878 55.3583 13.2744 57.3171 10.8908 59.4266C10.38 59.8786 9.8692 59.8786 9.35842 59.4266C9.01789 59.1252 9.01789 58.5225 9.52868 58.2212C11.9123 56.1117 14.1257 54.1528 16.5094 52.0433C16.8499 51.742 17.1904 51.5913 17.7012 51.742C18.0417 51.8927 18.212 52.0433 18.212 52.6461Z" fill="#FEC536"/>
</svg>
