<svg width="56" height="61" viewBox="0 0 56 61" fill="none" xmlns="http://www.w3.org/2000/svg">
<path d="M22.4746 42.1857C21.7936 42.3364 21.2828 42.4871 20.772 42.7884C20.091 41.8844 19.5803 40.8296 18.8992 40.0762C17.7074 38.5694 16.3453 37.2133 15.1535 35.7065C13.2806 33.4463 11.7483 31.1862 11.0672 28.3233C9.53487 21.2413 13.9616 14.3101 21.6233 11.5979C31.6687 7.98158 43.2465 14.0087 44.7788 23.5015C45.4598 27.8712 43.9275 31.4875 41.2033 34.9531C40.0115 36.4599 38.4792 37.9667 37.2873 39.6242C36.436 40.6789 35.9253 41.7337 35.074 42.7884C34.7335 43.2405 34.3929 43.6925 33.8821 43.8432C29.9661 45.1993 26.0501 46.4047 22.1342 47.6102C21.6234 47.7608 21.2828 47.6102 21.1126 47.3088C20.9423 46.8568 20.9423 46.4047 21.4531 46.2541C21.7936 46.1034 22.1341 45.9527 22.4746 45.9527C25.8799 44.8979 29.2851 43.8432 32.6903 42.6378C33.0308 42.4871 33.3713 42.1857 33.5416 41.8844C34.9037 39.6242 36.6063 37.816 38.3089 35.7065C40.0115 33.7477 41.5438 31.9395 42.2249 29.5287C43.9275 24.707 42.7357 20.4879 38.9899 16.8716C34.7334 12.6526 29.2851 11.2965 23.1557 12.954C17.0263 14.6115 13.6211 18.3784 12.4293 23.9536C11.578 27.8712 13.1103 31.1862 15.6642 34.1997C17.1966 36.0079 18.7289 37.816 20.2613 39.6242C21.2828 40.2269 21.7936 41.131 22.4746 42.1857Z" fill="#FEC536"/>
<path d="M21.6231 57.1029C21.4528 56.9522 21.1123 56.8016 21.1123 56.5002C21.1123 56.1988 21.2826 55.8975 21.4528 55.5961C21.4528 55.4454 21.7933 55.4454 21.9636 55.4454C25.7093 54.24 29.6254 53.0346 33.3711 51.8291C34.2224 51.5278 34.5629 51.6785 34.7332 52.1305C34.9034 52.5825 34.5629 53.0346 33.8819 53.3359C29.9659 54.5414 26.2201 55.7468 22.3041 57.1029C22.1339 56.9522 21.9636 56.9522 21.6231 57.1029Z" fill="#FEC536"/>
<path d="M21.6231 52.1306C21.4528 51.9799 21.1123 51.8293 21.1123 51.5279C21.1123 51.2265 21.2826 50.9252 21.4528 50.6238C21.4528 50.4732 21.7933 50.4732 21.9636 50.4732C25.7093 49.2677 29.6254 48.0623 33.3711 46.8569C34.2224 46.5555 34.5629 46.7062 34.7332 47.1582C34.9034 47.6103 34.7332 48.0623 33.8819 48.3636C29.9659 49.5691 26.2201 50.9252 22.3042 52.1306C22.1339 52.1306 21.9636 52.1306 21.6231 52.1306Z" fill="#FEC536"/>
<path d="M33.8821 56.3496C32.6903 59.9659 26.0501 62.0754 21.9639 60.1166C25.8799 58.9112 29.7959 57.555 33.8821 56.3496Z" fill="#FEC536"/>
<path d="M28.7739 3.61188C28.7739 4.2146 28.7739 4.81731 28.7739 5.42003C28.7739 5.87207 28.4334 6.17342 27.9226 6.17342C27.4118 6.17342 27.0713 5.87207 27.0713 5.42003C27.0713 4.2146 27.0713 3.00916 27.0713 1.65305C27.0713 1.20102 27.4118 0.899658 27.9226 0.899658C28.4334 0.899658 28.7739 1.20102 28.7739 1.65305C28.7739 2.25577 28.7739 3.00916 28.7739 3.61188Z" fill="#FEC536"/>
<path d="M3.06467 24.707C3.74571 24.707 4.42678 24.707 5.10782 24.707C5.78886 24.707 6.12939 25.0084 6.12939 25.4604C6.12939 25.9125 5.78886 26.2138 5.10782 26.2138C3.74573 26.2138 2.38366 26.2138 1.02157 26.2138C0.340532 26.2138 0 25.9125 0 25.4604C0 25.0084 0.340532 24.707 1.02157 24.707C1.70262 24.707 2.38363 24.707 3.06467 24.707Z" fill="#FEC536"/>
<path d="M52.7812 26.3645C52.1001 26.3645 51.4191 26.3645 50.738 26.3645C50.2272 26.3645 49.8867 26.0631 49.8867 25.6111C49.8867 25.159 50.2272 24.8577 50.738 24.8577C52.1001 24.8577 53.6325 24.8577 54.9945 24.8577C55.5053 24.8577 55.8458 25.159 55.8458 25.6111C55.8458 26.0631 55.5053 26.3645 54.9945 26.3645C54.1432 26.3645 53.4622 26.3645 52.7812 26.3645Z" fill="#FEC536"/>
<path d="M8.51362 7.52954C8.85414 7.68022 9.02439 7.8309 9.19465 7.98158C10.2162 8.88565 11.0675 9.63905 12.0891 10.5431C12.5999 10.9952 12.5999 11.2965 12.0891 11.7486C11.7486 12.0499 11.2378 12.0499 10.727 11.7486C9.70543 10.8445 8.68389 10.0911 7.83259 9.18701C7.66233 9.03633 7.49206 8.58429 7.66232 8.28294C7.83258 7.8309 8.34336 7.68022 8.51362 7.52954Z" fill="#FEC536"/>
<path d="M44.0973 39.0215C44.4378 39.1722 44.608 39.3228 44.7783 39.4735C45.7999 40.2269 46.6512 41.131 47.6727 41.8844C48.1835 42.3364 48.1835 42.7885 47.843 43.0898C47.5025 43.3912 46.9917 43.3912 46.4809 42.9391C45.4593 42.0351 44.6081 41.2817 43.5865 40.3776C43.4162 40.2269 43.246 39.7749 43.4162 39.4735C43.4162 39.3228 43.7567 39.1722 44.0973 39.0215Z" fill="#FEC536"/>
<path d="M48.1838 8.43373C48.0135 8.73509 47.8433 8.88577 47.673 9.03644C46.6515 9.94052 45.8002 10.6939 44.7786 11.598C44.4381 11.8993 43.9273 12.05 43.4165 11.598C43.076 11.2966 43.076 10.8446 43.4165 10.3926C44.4381 9.48848 45.2894 8.58441 46.3109 7.83101C46.4812 7.68033 46.992 7.52965 47.3325 7.68033C47.673 7.83101 47.8433 8.28305 48.1838 8.43373Z" fill="#FEC536"/>
<path d="M8.51354 43.3912C8.34328 43.2405 8.00277 43.0898 7.83251 42.7885C7.66225 42.6378 7.83251 42.1858 7.83251 42.0351C8.85407 41.131 9.87562 40.0763 11.0674 39.1722C11.408 38.8708 11.9187 38.8708 12.2592 39.1722C12.5998 39.4735 12.5998 39.9256 12.2592 40.2269C11.2377 41.131 10.2161 42.0351 9.19457 42.9392C9.02431 43.2405 8.85406 43.3912 8.51354 43.3912Z" fill="#FEC536"/>
</svg>
