<svg width="16" height="16" viewBox="0 0 16 16" fill="none" xmlns="http://www.w3.org/2000/svg">
<g id="Frame">
<path id="Vector" d="M7.65335 2.33265C7.68155 2.26387 7.72957 2.20503 7.7913 2.16362C7.85303 2.12221 7.92568 2.1001 8.00002 2.1001C8.07435 2.1001 8.14701 2.12221 8.20874 2.16362C8.27047 2.20503 8.31849 2.26387 8.34669 2.33265L9.76335 5.73998C9.78987 5.80374 9.83346 5.85894 9.88933 5.89952C9.9452 5.9401 10.0112 5.96448 10.08 5.96998L13.7587 6.26465C14.0914 6.29131 14.226 6.70665 13.9727 6.92331L11.17 9.32465C11.1177 9.36944 11.0786 9.42778 11.0572 9.49328C11.0358 9.55878 11.0329 9.62891 11.0487 9.69598L11.9054 13.286C11.9226 13.358 11.9181 13.4335 11.8924 13.503C11.8667 13.5724 11.821 13.6327 11.7611 13.6763C11.7012 13.7198 11.6297 13.7445 11.5557 13.7475C11.4817 13.7504 11.4085 13.7313 11.3454 13.6926L8.19535 11.7693C8.13651 11.7335 8.06893 11.7145 8.00002 11.7145C7.93111 11.7145 7.86353 11.7335 7.80469 11.7693L4.65469 13.6933C4.59152 13.732 4.51832 13.7511 4.44432 13.7481C4.37033 13.7452 4.29885 13.7204 4.23893 13.6769C4.17901 13.6334 4.13333 13.5731 4.10765 13.5036C4.08198 13.4342 4.07747 13.3587 4.09469 13.2866L4.95135 9.69598C4.96724 9.62891 4.96432 9.55876 4.94291 9.49325C4.92151 9.42773 4.88244 9.36939 4.83002 9.32465L2.02735 6.92331C1.97123 6.87505 1.93063 6.81128 1.91065 6.74C1.89068 6.66873 1.89222 6.59314 1.9151 6.52274C1.93797 6.45235 1.98114 6.39028 2.0392 6.34436C2.09725 6.29844 2.16758 6.2707 2.24135 6.26465L5.92002 5.96998C5.98885 5.96448 6.05483 5.9401 6.1107 5.89952C6.16657 5.85894 6.21017 5.80374 6.23669 5.73998L7.65335 2.33265Z" stroke="#B061B2" stroke-width="1.5" stroke-linecap="round" stroke-linejoin="round"/>
</g>
</svg>
